<svg width="26" height="27" viewBox="0 0 26 27" fill="none" xmlns="http://www.w3.org/2000/svg">
<path d="M2.70002 27.0002C1.95751 27.0002 1.32188 26.7358 0.79313 26.207C0.264377 25.6783 0 25.0427 0 24.3001V2.70002C0 1.95751 0.264377 1.32188 0.79313 0.79313C1.32188 0.264377 1.95751 0 2.70002 0H13.5001L21.6001 8.10005V12.1501C21.0826 12.2626 20.5989 12.4426 20.1489 12.6901C19.6989 12.9376 19.2826 13.2526 18.9001 13.6351L10.8001 21.7014V27.0002H2.70002ZM13.5001 27.0002V22.8489L20.9589 15.4238C21.1614 15.2213 21.3864 15.0751 21.6339 14.9851C21.8814 14.8951 22.1289 14.8501 22.3764 14.8501C22.6464 14.8501 22.9051 14.9007 23.1526 15.002C23.4001 15.1032 23.6251 15.2551 23.8276 15.4576L25.0764 16.7064C25.2564 16.9089 25.397 17.1339 25.4983 17.3814C25.5995 17.6289 25.6502 17.8764 25.6502 18.1239C25.6502 18.3714 25.6052 18.6245 25.5152 18.8832C25.4252 19.142 25.2789 19.3726 25.0764 19.5751L17.6514 27.0002H13.5001ZM22.3764 19.4401L23.6251 18.1239L22.3764 16.8751L21.0939 18.1576L22.3764 19.4401ZM12.1501 9.45006H18.9001L12.1501 2.70002L18.9001 9.45006L12.1501 2.70002V9.45006Z" fill="#004AC6"/>
</svg>
