<svg width="27" height="22" viewBox="0 0 27 22" fill="none" xmlns="http://www.w3.org/2000/svg">
<path d="M10.7933 21.5194C7.78956 21.5194 5.23974 20.477 3.14384 18.3923C1.04795 16.3076 0 13.7634 0 10.7597C0 7.75593 1.04795 5.21172 3.14384 3.12703C5.23974 1.04234 7.78956 0 10.7933 0H16.2068C19.2105 0 21.7603 1.04234 23.8562 3.12703C25.9521 5.21172 27.0001 7.75593 27.0001 10.7597C27.0001 13.7634 25.9521 16.3076 23.8562 18.3923C21.7603 20.477 19.2105 21.5194 16.2068 21.5194H10.7933ZM11.6003 13.0125L8.74224 10.1544C8.49566 9.88545 8.18744 9.75096 7.81758 9.75096C7.44771 9.75096 7.12829 9.88545 6.85929 10.1544C6.5903 10.4234 6.45581 10.7429 6.45581 11.1127C6.45581 11.4826 6.5903 11.7908 6.85929 12.0374L10.1881 15.3662C10.5916 15.7697 11.0735 15.9714 11.6339 15.9714C12.1943 15.9714 12.665 15.7697 13.0461 15.3662L20.1744 8.23788C20.4434 7.9913 20.5779 7.67748 20.5779 7.29641C20.5779 6.91533 20.4434 6.60151 20.1744 6.35493C19.9054 6.08594 19.586 5.95145 19.2161 5.95145C18.8462 5.95145 18.5268 6.08594 18.2578 6.35493L11.6003 13.0125Z" fill="#004AC6"/>
</svg>
