<svg width="27" height="34" viewBox="0 0 27 34" fill="none" xmlns="http://www.w3.org/2000/svg">
<path d="M13.4998 33.7496C9.59051 32.7652 6.3632 30.5223 3.81792 27.0208C1.27264 23.5192 0 19.631 0 15.3561V5.06244L13.4998 0L26.9997 5.06244V15.3561C26.9997 19.631 25.727 23.5192 23.1817 27.0208C20.6365 30.5223 17.4092 32.7652 13.4998 33.7496ZM13.4998 30.2059C16.2279 29.3621 18.506 27.6958 20.3341 25.2067C22.1622 22.7177 23.231 19.9404 23.5403 16.8748H13.4998V3.58589L3.37496 7.38272V15.3561C3.37496 15.6654 3.37496 15.9186 3.37496 16.1154C3.37496 16.3123 3.40308 16.5654 3.45933 16.8748H13.4998V30.2059Z" fill="#004AC6"/>
</svg>
