<svg width="19" height="14" viewBox="0 0 19 14" fill="none" xmlns="http://www.w3.org/2000/svg">
<path d="M11.2275 5.09554V3.62734C11.7025 3.42582 12.1883 3.27468 12.6849 3.17392C13.1815 3.07316 13.7033 3.02278 14.2503 3.02278C14.6245 3.02278 14.9916 3.05157 15.3514 3.10915C15.7113 3.16672 16.0639 3.23869 16.4094 3.32506V4.7069C16.0639 4.57735 15.7149 4.48019 15.3622 4.41542C15.0095 4.35065 14.6389 4.31826 14.2503 4.31826C13.7033 4.31826 13.1779 4.38663 12.6741 4.52338C12.1703 4.66012 11.6881 4.85084 11.2275 5.09554ZM11.2275 9.84563V8.37742C11.7025 8.1759 12.1883 8.02476 12.6849 7.924C13.1815 7.82325 13.7033 7.77287 14.2503 7.77287C14.6245 7.77287 14.9916 7.80165 15.3514 7.85923C15.7113 7.91681 16.0639 7.98878 16.4094 8.07514V9.45699C16.0639 9.32744 15.7149 9.23028 15.3622 9.1655C15.0095 9.10073 14.6389 9.06834 14.2503 9.06834C13.7033 9.06834 13.1779 9.13312 12.6741 9.26266C12.1703 9.39221 11.6881 9.58653 11.2275 9.84563ZM11.2275 7.47059V6.00238C11.7025 5.80086 12.1883 5.64972 12.6849 5.54896C13.1815 5.4482 13.7033 5.39782 14.2503 5.39782C14.6245 5.39782 14.9916 5.42661 15.3514 5.48419C15.7113 5.54176 16.0639 5.61374 16.4094 5.7001V7.08194C16.0639 6.9524 15.7149 6.85524 15.3622 6.79046C15.0095 6.72569 14.6389 6.6933 14.2503 6.6933C13.7033 6.6933 13.1779 6.76167 12.6741 6.89842C12.1703 7.03516 11.6881 7.22589 11.2275 7.47059ZM4.75008 10.3638C5.42661 10.3638 6.08515 10.4394 6.72569 10.5905C7.36623 10.7417 8.00317 10.9684 8.63652 11.2707V2.76369C8.04635 2.41822 7.42021 2.15913 6.75807 1.9864C6.09594 1.81367 5.42661 1.7273 4.75008 1.7273C4.23189 1.7273 3.7173 1.77768 3.20631 1.87844C2.69531 1.9792 2.20231 2.13034 1.7273 2.33186V10.882C2.2311 10.7093 2.7313 10.5797 3.2279 10.4934C3.7245 10.407 4.23189 10.3638 4.75008 10.3638ZM10.3638 11.2707C10.9972 10.9684 11.6341 10.7417 12.2746 10.5905C12.9152 10.4394 13.5737 10.3638 14.2503 10.3638C14.7684 10.3638 15.2758 10.407 15.7724 10.4934C16.269 10.5797 16.7692 10.7093 17.273 10.882V2.33186C16.798 2.13034 16.305 1.9792 15.794 1.87844C15.283 1.77768 14.7684 1.7273 14.2503 1.7273C13.5737 1.7273 12.9044 1.81367 12.2423 1.9864C11.5801 2.15913 10.954 2.41822 10.3638 2.76369V11.2707ZM9.50017 13.8184C8.80925 13.2714 8.06075 12.8468 7.25467 12.5445C6.4486 12.2423 5.61374 12.0911 4.75008 12.0911C4.14553 12.0911 3.55177 12.1703 2.9688 12.3286C2.38584 12.487 1.82806 12.7101 1.29548 12.998C0.993199 13.1563 0.701717 13.1491 0.42103 12.9764C0.140343 12.8036 0 12.5517 0 12.2207V1.81367C0 1.65533 0.039584 1.50419 0.118752 1.36025C0.19792 1.21631 0.316672 1.10835 0.475008 1.03638C1.13714 0.690921 1.82806 0.431826 2.54777 0.259096C3.26748 0.0863652 4.00159 0 4.75008 0C5.58495 0 6.40182 0.107956 7.2007 0.323869C7.99957 0.539782 8.76607 0.863652 9.50017 1.29548C10.2343 0.863652 11.0008 0.539782 11.7996 0.323869C12.5985 0.107956 13.4154 0 14.2503 0C14.9988 0 15.7329 0.0863652 16.4526 0.259096C17.1723 0.431826 17.8632 0.690921 18.5253 1.03638C18.6837 1.10835 18.8024 1.21631 18.8816 1.36025C18.9608 1.50419 19.0003 1.65533 19.0003 1.81367V12.2207C19.0003 12.5517 18.86 12.8036 18.5793 12.9764C18.2986 13.1491 18.0071 13.1563 17.7049 12.998C17.1723 12.7101 16.6145 12.487 16.0315 12.3286C15.4486 12.1703 14.8548 12.0911 14.2503 12.0911C13.3866 12.0911 12.5517 12.2423 11.7457 12.5445C10.9396 12.8468 10.1911 13.2714 9.50017 13.8184Z" fill="#737686"/>
</svg>
