<svg width="17" height="14" viewBox="0 0 17 14" fill="none" xmlns="http://www.w3.org/2000/svg">
<path d="M1.69997 13.5997C1.23248 13.5997 0.832275 13.4333 0.499365 13.1004C0.166455 12.7675 0 12.3673 0 11.8998V1.69997C0 1.23248 0.166455 0.832275 0.499365 0.499365C0.832275 0.166455 1.23248 0 1.69997 0H15.2997C15.7672 0 16.1674 0.166455 16.5003 0.499365C16.8332 0.832275 16.9997 1.23248 16.9997 1.69997V11.8998C16.9997 12.3673 16.8332 12.7675 16.5003 13.1004C16.1674 13.4333 15.7672 13.5997 15.2997 13.5997H1.69997ZM8.49983 7.64985L1.69997 3.39993V11.8998H15.2997V3.39993L8.49983 7.64985ZM8.49983 5.94988L15.2997 1.69997H1.69997L8.49983 5.94988ZM1.69997 3.39993V1.69997V3.39993V11.8998V3.39993Z" fill="#737686"/>
</svg>
