<svg width="34" height="34" viewBox="0 0 34 34" fill="none" xmlns="http://www.w3.org/2000/svg">
<path d="M16.9999 33.9998C14.6483 33.9998 12.4383 33.5536 10.3699 32.6611C8.30163 31.7686 6.50247 30.5574 4.97248 29.0274C3.44248 27.4974 2.23124 25.6982 1.33874 23.6299C0.446248 21.5616 0 19.3516 0 16.9999C0 14.6483 0.446248 12.4383 1.33874 10.3699C2.23124 8.30163 3.44248 6.50247 4.97248 4.97248C6.50247 3.44248 8.30163 2.23124 10.3699 1.33874C12.4383 0.446248 14.6483 0 16.9999 0H18.6999V14.0674C19.2099 14.3791 19.6207 14.7828 19.9324 15.2787C20.2441 15.7745 20.3999 16.3483 20.3999 16.9999C20.3999 17.9349 20.067 18.7353 19.4012 19.4012C18.7353 20.067 17.9349 20.3999 16.9999 20.3999C16.0649 20.3999 15.2645 20.067 14.5987 19.4012C13.9328 18.7353 13.5999 17.9349 13.5999 16.9999C13.5999 16.3483 13.7558 15.7674 14.0674 15.2574C14.3791 14.7474 14.7899 14.3508 15.2999 14.0674V10.4124C13.8266 10.8091 12.6083 11.6095 11.6449 12.8137C10.6816 14.0178 10.2 15.4133 10.2 16.9999C10.2 18.8699 10.8658 20.4707 12.1974 21.8024C13.5291 23.1341 15.1299 23.7999 16.9999 23.7999C18.8699 23.7999 20.4707 23.1341 21.8024 21.8024C23.1341 20.4707 23.7999 18.8699 23.7999 16.9999C23.7999 15.9799 23.5945 15.0378 23.1836 14.1737C22.7728 13.3095 22.2132 12.5516 21.5049 11.8999L23.9274 9.47745C24.919 10.4124 25.7124 11.5245 26.3074 12.8137C26.9024 14.1028 27.1999 15.4983 27.1999 16.9999C27.1999 19.8332 26.2082 22.2416 24.2249 24.2249C22.2416 26.2082 19.8332 27.1999 16.9999 27.1999C14.1666 27.1999 11.7583 26.2082 9.77495 24.2249C7.79163 22.2416 6.79997 19.8332 6.79997 16.9999C6.79997 14.4499 7.60746 12.2329 9.22246 10.3487C10.8374 8.46454 12.8633 7.32413 15.2999 6.92747V3.48498C11.9283 3.90998 9.10204 5.39747 6.82122 7.94746C4.54039 10.4974 3.39998 13.5149 3.39998 16.9999C3.39998 20.7966 4.71748 24.0124 7.35246 26.6474C9.98745 29.2824 13.2033 30.5999 16.9999 30.5999C20.7966 30.5999 24.0124 29.2824 26.6474 26.6474C29.2824 24.0124 30.5999 20.7966 30.5999 16.9999C30.5999 15.0449 30.2174 13.2174 29.4524 11.5174C28.6874 9.81745 27.639 8.34413 26.3074 7.09747L28.7299 4.67498C30.3449 6.2333 31.6269 8.06788 32.5761 10.1787C33.5253 12.2895 33.9998 14.5633 33.9998 16.9999C33.9998 19.3516 33.5536 21.5616 32.6611 23.6299C31.7686 25.6982 30.5574 27.4974 29.0274 29.0274C27.4974 30.5574 25.6982 31.7686 23.6299 32.6611C21.5616 33.5536 19.3516 33.9998 16.9999 33.9998Z" fill="#004AC6"/>
</svg>
