<svg width="14" height="14" viewBox="0 0 14 14" fill="none" xmlns="http://www.w3.org/2000/svg">
<path d="M7.00017 7.00017C6.03765 7.00017 5.21367 6.65745 4.52824 5.97202C3.8428 5.28659 3.50009 4.46261 3.50009 3.50009C3.50009 2.53756 3.8428 1.71358 4.52824 1.02815C5.21367 0.342717 6.03765 0 7.00017 0C7.96269 0 8.78667 0.342717 9.47211 1.02815C10.1575 1.71358 10.5003 2.53756 10.5003 3.50009C10.5003 4.46261 10.1575 5.28659 9.47211 5.97202C8.78667 6.65745 7.96269 7.00017 7.00017 7.00017ZM0 14.0003V11.5503C0 11.0544 0.127607 10.5987 0.382822 10.1831C0.638036 9.76743 0.977107 9.45023 1.40003 9.23148C2.30422 8.77938 3.223 8.44031 4.15635 8.21426C5.08971 7.98822 6.03765 7.87519 7.00017 7.87519C7.96269 7.87519 8.91063 7.98822 9.84399 8.21426C10.7773 8.44031 11.6961 8.77938 12.6003 9.23148C13.0232 9.45023 13.3623 9.76743 13.6175 10.1831C13.8727 10.5987 14.0003 11.0544 14.0003 11.5503V14.0003H0ZM1.75004 12.2503H12.2503V11.5503C12.2503 11.3899 12.2102 11.244 12.13 11.1128C12.0498 10.9815 11.944 10.8794 11.8128 10.8065C11.0253 10.4128 10.2305 10.1174 9.42836 9.92056C8.62625 9.72368 7.81686 9.62524 7.00017 9.62524C6.18348 9.62524 5.37409 9.72368 4.57199 9.92056C3.76988 10.1174 2.97507 10.4128 2.18755 10.8065C2.0563 10.8794 1.95057 10.9815 1.87036 11.1128C1.79015 11.244 1.75004 11.3899 1.75004 11.5503V12.2503ZM7.00017 5.25013C7.48143 5.25013 7.89342 5.07877 8.23614 4.73605C8.57886 4.39334 8.75021 3.98135 8.75021 3.50009C8.75021 3.01882 8.57886 2.60683 8.23614 2.26412C7.89342 1.9214 7.48143 1.75004 7.00017 1.75004C6.51891 1.75004 6.10692 1.9214 5.7642 2.26412C5.42149 2.60683 5.25013 3.01882 5.25013 3.50009C5.25013 3.98135 5.42149 4.39334 5.7642 4.73605C6.10692 5.07877 6.51891 5.25013 7.00017 5.25013Z" fill="#737686"/>
</svg>
