<svg width="17" height="17" viewBox="0 0 17 17" fill="none" xmlns="http://www.w3.org/2000/svg">
<path d="M1.69997 16.9997C1.23248 16.9997 0.832275 16.8332 0.499365 16.5003C0.166455 16.1674 0 15.7672 0 15.2997V5.94988C0 5.48239 0.166455 5.08219 0.499365 4.74928C0.832275 4.41637 1.23248 4.24992 1.69997 4.24992H5.94988V1.69997C5.94988 1.23248 6.11634 0.832275 6.44925 0.499365C6.78216 0.166455 7.18236 0 7.64985 0H9.34982C9.81731 0 10.2175 0.166455 10.5504 0.499365C10.8833 0.832275 11.0498 1.23248 11.0498 1.69997V4.24992H15.2997C15.7672 4.24992 16.1674 4.41637 16.5003 4.74928C16.8332 5.08219 16.9997 5.48239 16.9997 5.94988V15.2997C16.9997 15.7672 16.8332 16.1674 16.5003 16.5003C16.1674 16.8332 15.7672 16.9997 15.2997 16.9997H1.69997ZM1.69997 15.2997H15.2997V5.94988H11.0498C11.0498 6.41737 10.8833 6.81758 10.5504 7.15049C10.2175 7.4834 9.81731 7.64985 9.34982 7.64985H7.64985C7.18236 7.64985 6.78216 7.4834 6.44925 7.15049C6.11634 6.81758 5.94988 6.41737 5.94988 5.94988H1.69997V15.2997ZM3.39993 13.5997H8.49983V13.2172C8.49983 12.9764 8.43254 12.7533 8.29796 12.5479C8.16338 12.3425 7.97568 12.1831 7.73485 12.0698C7.45152 11.9423 7.16465 11.8466 6.87424 11.7829C6.58383 11.7191 6.27571 11.6873 5.94988 11.6873C5.62406 11.6873 5.31594 11.7191 5.02553 11.7829C4.73512 11.8466 4.44825 11.9423 4.16492 12.0698C3.92409 12.1831 3.73639 12.3425 3.6018 12.5479C3.46722 12.7533 3.39993 12.9764 3.39993 13.2172V13.5997ZM10.1998 12.3248H13.5997V11.0498H10.1998V12.3248ZM5.94988 11.0498C6.30404 11.0498 6.60508 10.9258 6.85299 10.6779C7.1009 10.43 7.22486 10.129 7.22486 9.77481C7.22486 9.42065 7.1009 9.11961 6.85299 8.8717C6.60508 8.62379 6.30404 8.49983 5.94988 8.49983C5.59572 8.49983 5.29469 8.62379 5.04678 8.8717C4.79886 9.11961 4.67491 9.42065 4.67491 9.77481C4.67491 10.129 4.79886 10.43 5.04678 10.6779C5.29469 10.9258 5.59572 11.0498 5.94988 11.0498ZM10.1998 9.77481H13.5997V8.49983H10.1998V9.77481ZM7.64985 5.94988H9.34982V1.69997H7.64985V5.94988Z" fill="#737686"/>
</svg>
