<svg width="33" height="35" viewBox="0 0 33 35" fill="none" xmlns="http://www.w3.org/2000/svg">
<path d="M4.5 24V13.5H7.5V24H4.5ZM13.5 24V13.5H16.5V24H13.5ZM0 10.5V7.5L15 0L30 7.5V10.5H0ZM0 30V27H18.075C18.125 27.525 18.1875 28.0312 18.2625 28.5187C18.3375 29.0062 18.45 29.5 18.6 30H0ZM22.5 18.375V13.5H25.5V16.875L22.5 18.375ZM27 34.5C25.275 34.075 23.8438 33.0812 22.7062 31.5187C21.5687 29.9562 21 28.225 21 26.325V22.5L27 19.5L33 22.5V26.325C33 28.225 32.4313 29.9562 31.2938 31.5187C30.1562 33.0812 28.725 34.075 27 34.5ZM25.9125 30L31.125 24.825L29.55 23.25L25.9125 26.8125L24.45 25.35L22.875 26.9625L25.9125 30Z" fill="#004AC6"/>
</svg>
