<svg width="25" height="25" viewBox="0 0 25 25" fill="none" xmlns="http://www.w3.org/2000/svg">
<path d="M11.25 24.875C9.66667 24.7083 8.19271 24.276 6.82812 23.5781C5.46354 22.8802 4.27604 21.974 3.26562 20.8594C2.25521 19.7448 1.45833 18.4688 0.875 17.0312C0.291667 15.5938 0 14.0625 0 12.4375C0 10.5417 0.380208 8.79167 1.14062 7.1875C1.90104 5.58333 2.9375 4.20833 4.25 3.0625H1.25V0.5625H8.75V8.0625H6.25V4.65625C5.10417 5.57292 4.19271 6.70312 3.51562 8.04688C2.83854 9.39062 2.5 10.8542 2.5 12.4375C2.5 15 3.33854 17.2135 5.01562 19.0781C6.69271 20.9427 8.77083 22.0312 11.25 22.3438V24.875ZM10.7188 18.1875L5.4375 12.875L7.1875 11.125L10.7188 14.6562L17.8125 7.5625L19.5625 9.34375L10.7188 18.1875ZM16.25 24.3125V16.8125H18.75V20.2188C19.8958 19.2812 20.8073 18.1458 21.4844 16.8125C22.1615 15.4792 22.5 14.0208 22.5 12.4375C22.5 9.875 21.6615 7.66146 19.9844 5.79688C18.3073 3.93229 16.2292 2.84375 13.75 2.53125V0C16.9167 0.3125 19.5833 1.64583 21.75 4C23.9167 6.35417 25 9.16667 25 12.4375C25 14.3333 24.6198 16.0833 23.8594 17.6875C23.099 19.2917 22.0625 20.6667 20.75 21.8125H23.75V24.3125H16.25Z" fill="#004AC6"/>
</svg>
