<svg width="23" height="23" viewBox="0 0 23 23" fill="none" xmlns="http://www.w3.org/2000/svg">
<path d="M2.55556 23C1.85278 23 1.25116 22.7498 0.750694 22.2493C0.250231 21.7488 0 21.1472 0 20.4444V2.55556C0 1.85278 0.250231 1.25116 0.750694 0.750694C1.25116 0.250231 1.85278 0 2.55556 0H14.0556V2.55556H2.55556V20.4444H20.4444V8.94444H23V20.4444C23 21.1472 22.7498 21.7488 22.2493 22.2493C21.7488 22.7498 21.1472 23 20.4444 23H2.55556ZM6.38889 17.8889V15.3333H16.6111V17.8889H6.38889ZM6.38889 14.0556V11.5H16.6111V14.0556H6.38889ZM6.38889 10.2222V7.66667H16.6111V10.2222H6.38889ZM17.8889 7.66667V5.11111H15.3333V2.55556H17.8889V0H20.4444V2.55556H23V5.11111H20.4444V7.66667H17.8889Z" fill="#004AC6"/>
</svg>
